<svg height="512pt" viewBox="-11 0 512 512" width="512pt" xmlns="http://www.w3.org/2000/svg"><path d="m447.550781 404.855469c26.785157-39.273438 42.449219-86.734375 42.449219-137.855469 0-135.308594-109.691406-245-245-245s-245 109.691406-245 245c0 22.035156 2.925781 43.386719 8.382812 63.699219zm0 0" fill="#00c82f"/><path d="m448.171875 349.078125h-434.066406c33.75 94.9375 124.375 162.921875 230.894531 162.921875 84.578125 0 159.144531-42.855469 203.171875-108.039062zm0 0" fill="#e6f7fe"/><path d="m74.9375 349.078125h-60.832031c12.820312 36.058594 33.847656 68.222656 60.832031 94.253906zm0 0" fill="#d5f1fe"/><path d="m8.097656 80.535156h271.59375v89.851563h-271.59375zm0 0" fill="#fce395"/><path d="m8.097656 170.386719h91.449219c.488281-2.664063 1.199219-4.96875 1.871094-6.757813.882812-2.351562.066406-5.027344-2.042969-6.394531-19.789062-12.8125-15.445312-28.554687-11.324219-36.535156 1.40625-2.722657.285157-6.015625-2.484375-7.332031-20.277344-9.648438-10.628906-30.832032-10.628906-30.832032l-4.066406-2h-62.773438zm0 0" fill="#fecd0a"/><path d="m8.097656 56.269531h271.597656v26.265625h-271.597656zm0 0" fill="#d5f1fe"/><path d="m125.054688 82.535156h-116.957032v-26.265625h92.214844c13.664062 0 24.742188 11.761719 24.742188 26.265625zm0 0" fill="#11dfef"/><path d="m8.097656 56.269531h66.839844v26.265625h-66.839844zm0 0" fill="#0ac6e5"/><path d="m136.867188 411.277344h-63.738282c-5.523437 0-10-4.476563-10-10 0-5.523438 4.476563-10 10-10h63.738282c5.523437 0 10 4.476562 10 10 0 5.519531-4.476563 10-10 10zm0 0" fill="#11dfef"/><path d="m206.234375 427.550781h-138.734375c-2.15625 0-4.09375.914063-5.460938 2.371094 3.878907 4.351563 7.910157 8.5625 12.085938 12.628906h132.109375c4.144531 0 7.5-3.355469 7.5-7.5 0-4.140625-3.359375-7.5-7.5-7.5zm0 0" fill="#d5f1fe"/><path d="m206.234375 459.121094h-113.269531c6.765625 5.359375 13.820312 10.367187 21.132812 15h92.136719c4.140625 0 7.5-3.355469 7.5-7.5 0-4.140625-3.359375-7.5-7.5-7.5zm0 0" fill="#d5f1fe"/><path d="m319.402344 411.277344h-63.734375c-5.523438 0-10-4.476563-10-10 0-5.523438 4.476562-10 10-10h63.734375c5.523437 0 10 4.476562 10 10 0 5.519531-4.476563 10-10 10zm0 0" fill="#11dfef"/><path d="m388.769531 442.550781h-138.734375c-4.140625 0-7.5-3.355469-7.5-7.5s3.359375-7.5 7.5-7.5h138.734375c4.140625 0 7.5 3.355469 7.5 7.5s-3.355469 7.5-7.5 7.5zm0 0" fill="#d5f1fe"/><path d="m388.769531 459.121094h-138.734375c-4.140625 0-7.5 3.355468-7.5 7.5 0 4.144531 3.359375 7.5 7.5 7.5h125.863282c6.277343-3.976563 12.359374-8.230469 18.230468-12.742188-1.359375-1.390625-3.257812-2.257812-5.359375-2.257812zm0 0" fill="#d5f1fe"/><path d="m279.207031 252.765625v-98.289063c-12.265625 7.691407-28.363281 14.617188-47.136719 15.152344-5.707031 9.574219-16.160156 16.003906-28.089843 16.003906-19.6875 0-35.121094-17.4375-32.355469-37.21875-10.644531-7.933593-37.699219-33.292968-80.289062-32.882812-44.402344.433594-69.367188 28.335938-83.238282 40.324219v96.910156zm0 0" fill="#fecd0a"/><path d="m121.230469 209.945312c-27.535157-15.796874-23.160157-37.410156-19.8125-46.316406.886719-2.351562.066406-5.027344-2.042969-6.394531-19.789062-12.8125-15.445312-28.554687-11.324219-36.535156.863281-1.671875.769531-3.554688-.066406-5.066407-42.308594 1.757813-66.371094 28.542969-79.886719 40.226563v96.90625h118.085938c11.554687-11.945313 17.472656-29.957031-4.953125-42.820313zm0 0" fill="#fca60d"/><path d="m8.097656 329.652344c1.800782 6.835937 3.890625 13.550781 6.257813 20.136718h265.339843c-.316406-1.589843-.488281-3.230468-.488281-4.910156v-104.757812l-22.625-22.625c-9.152343-9.148438-23.988281-9.148438-33.140625 0l-16.253906 16.257812c-4 4-10.484375 4-14.484375 0l-66.96875-66.96875c-10.109375-10.109375-26.5-10.109375-36.609375 0l-81.027344 81.027344zm0 0" fill="#fca60d"/><path d="m110.230469 311.808594c-43.25-22.5-5.5-46.558594-5.5-46.558594 16.476562-1.671875 52-34.941406 16.5-55.304688-27.535157-15.796874-23.160157-37.410156-19.8125-46.316406.464843-1.234375.449219-2.550781.035156-3.726562-4.515625 1.066406-8.804687 3.359375-12.324219 6.878906l-81.03125 81.03125v81.839844c1.804688 6.832031 3.894532 13.546875 6.257813 20.132812h88.527343c17.136719-9.792968 33.074219-24.59375 7.347657-37.976562zm0 0" fill="#f98a10"/><path d="m8.097656 329.652344c1.800782 6.835937 3.890625 13.550781 6.257813 20.136718h265.339843c-.316406-1.589843-.488281-3.230468-.488281-4.910156v-56.550781c-23.703125 22.972656-61.226562 40.980469-109.296875 3.953125-75.820312-58.398438-114.828125-7.855469-161.8125 18.214844zm0 0" fill="#8181fc"/><path d="m110.230469 311.808594c-42.683594-22.207032-6.476563-45.925782-5.523438-46.542969-37.503906-.398437-65.285156 27.847656-96.609375 45.230469v19.15625c1.804688 6.832031 3.894532 13.546875 6.257813 20.132812h88.527343c17.136719-9.792968 33.074219-24.59375 7.347657-37.976562zm0 0" fill="#615df9"/><path d="m238.054688 152.953125c0 18.816406-15.257813 34.070313-34.074219 34.070313-18.816407 0-34.070313-15.253907-34.070313-34.070313 0-18.820313 15.253906-34.074219 34.070313-34.074219 18.816406 0 34.074219 15.253906 34.074219 34.074219zm0 0" fill="#fca60d"/><path d="m231.136719 172.050781c-27.601563 0-43.277344-30.917969-28.234375-53.144531-18.316406.574219-32.992188 15.589844-32.992188 34.046875 0 33.5 43.523438 46.832031 62.308594 19.070313-.359375.011718-.71875.027343-1.082031.027343zm0 0" fill="#f98a10"/><path d="m279.707031 26.578125c0-6.617187 2.441407-12.675781 6.457031-17.335937-121.785156 0-269.4375 0-276.722656 0-.742187 0-1.34375.601562-1.34375 1.34375v47.207031h271.609375zm0 0" fill="#615df9"/><path d="m74.9375 21.242188c0-6.597657 5.398438-12 12-12-43.664062 0-74.277344 0-77.496094 0-.742187 0-1.34375.601562-1.34375 1.34375v47.207031h66.835938v-36.550781zm0 0" fill="#3342ae"/><path d="m44.4375 43.050781c-5.507812 0-10-4.488281-10-10 0-4.769531 3.351562-8.855469 8.046875-9.8125 6.117187-1.230469 11.953125 3.472657 11.953125 9.8125 0 5.558594-4.546875 10-10 10zm0 0" fill="#f948b4"/><path d="m74.9375 43.050781c-5.433594 0-10-4.421875-10-10 0-6.324219 5.816406-11.046875 11.949219-9.8125 4.84375.984375 8.050781 5.214844 8.050781 9.8125 0 5.507813-4.492188 10-10 10zm0 0" fill="#fecd0a"/><path d="m105.4375 43.050781c-5.433594 0-10-4.421875-10-10 0-6.351562 5.84375-11.039062 11.949219-9.8125 4.84375.984375 8.050781 5.222657 8.050781 9.8125 0 5.507813-4.492188 10-10 10zm0 0" fill="#39df74"/><path d="m279.707031 26.578125c0-.1875.011719-.375.015625-.5625h-134.640625c-4.144531 0-7.5 3.359375-7.5 7.5 0 4.144531 3.355469 7.5 7.5 7.5h134.625zm0 0" fill="#8181fc"/><path d="m455.320312 0h-151.035156c-14.652344 0-26.578125 11.925781-26.578125 26.578125v318.296875c0 14.65625 11.925781 26.578125 26.578125 26.578125h151.039063c14.65625 0 26.578125-11.921875 26.578125-26.578125v-318.296875c0-14.652344-11.925782-26.578125-26.582032-26.578125zm0 0" fill="#3d4ec6"/><path d="m328.148438 363.695312c0-5.117187 3.886718-9.324218 8.871093-9.824218l-8.085937-336.183594c-3.765625-1.390625-6.453125-5.003906-6.453125-9.253906 0-3.578125 1.910156-6.699219 4.757812-8.433594h-22.953125c-14.652344 0-26.574218 11.925781-26.574218 26.578125v318.300781c0 14.652344 11.921874 26.578125 26.574218 26.578125h27.644532c-2.300782-1.808593-3.78125-4.609375-3.78125-7.761719zm0 0" fill="#3342ae"/><path d="m293.09375 199.300781v145.578125c0 6.179688 5.011719 11.1875 11.191406 11.1875h151.039063c6.179687 0 11.191406-5.007812 11.191406-11.1875 0-5.308594 0-73.582031 0-145.578125zm0 0" fill="#e6f7fe"/><path d="m329.207031 344.878906v-145.578125h-36.113281v145.578125c0 6.179688 5.011719 11.1875 11.191406 11.1875h27.402344c-1.585938-3.402344-2.480469-7.191406-2.480469-11.1875zm0 0" fill="#d5f1fe"/><path d="m380.019531 240.488281h-45.273437c-5.523438 0-10-4.476562-10-10 0-5.519531 4.476562-10 10-10h45.273437c5.519531 0 10 4.480469 10 10 0 5.523438-4.480469 10-10 10zm0 0" fill="#11dfef"/><path d="m429.292969 267.765625h-98.546875c-4.140625 0-7.5-3.359375-7.5-7.5 0-4.144531 3.359375-7.5 7.5-7.5h98.546875c4.140625 0 7.5 3.355469 7.5 7.5 0 4.140625-3.359375 7.5-7.5 7.5zm0 0" fill="#d5f1fe"/><path d="m380.019531 302.917969h-45.273437c-5.523438 0-10-4.476563-10-10 0-5.519531 4.476562-10 10-10h45.273437c5.519531 0 10 4.480469 10 10 0 5.523437-4.480469 10-10 10zm0 0" fill="#11dfef"/><path d="m357.382812 230.488281c0-5.519531 4.476563-10 10-10h-32.636718c-5.523438 0-10 4.480469-10 10 0 5.523438 4.476562 10 10 10h32.636718c-5.523437 0-10-4.476562-10-10zm0 0" fill="#0ac6e5"/><path d="m357.382812 292.917969c0-5.519531 4.476563-10 10-10h-32.636718c-5.523438 0-10 4.480469-10 10 0 5.523437 4.476562 10 10 10h32.636718c-5.523437 0-10-4.476563-10-10zm0 0" fill="#0ac6e5"/><path d="m429.292969 330.195312h-98.546875c-4.140625 0-7.5-3.355468-7.5-7.5 0-4.144531 3.359375-7.5 7.5-7.5h98.546875c4.140625 0 7.5 3.355469 7.5 7.5 0 4.140626-3.359375 7.5-7.5 7.5zm0 0" fill="#d5f1fe"/><path d="m455.320312 15.386719h-22.445312c-2.117188 0-3.832031 1.714843-3.832031 3.832031 0 5.078125-4.152344 9.230469-9.230469 9.230469h-80.011719c-5.078125 0-9.234375-4.152344-9.234375-9.230469 0-2.117188-1.714844-3.832031-3.832031-3.832031h-22.445313c-6.183593 0-11.191406 5.011719-11.191406 11.191406v33.113281c6.199219-4.003906 43.273438-25.320312 84.183594 8.253906 1.167969.960938 2.332031 1.855469 3.488281 2.71875-.132812.960938-.207031 1.941407-.207031 2.941407 0 11.683593 9.503906 21.1875 21.183594 21.1875 7.734375 0 14.511718-4.171875 18.210937-10.375 25.25-.71875 43.109375-19.246094 46.558594-23.097657v-34.742187c0-6.179687-5.011719-11.191406-11.195313-11.191406zm0 0" fill="#fce395"/><path d="m330.566406 19.21875c0-2.117188-1.714844-3.832031-3.832031-3.832031h-22.449219c-6.179687 0-11.191406 5.011719-11.191406 11.191406v33.113281c4.066406-2.625 21.398438-12.6875 44.382812-9.851562.652344-1.664063.476563-3.570313-.566406-5.117188-6.636718-9.859375 2.886719-16.273437 2.886719-16.273437-5.074219 0-9.230469-4.152344-9.230469-9.230469zm0 0" fill="#fecd0a"/><path d="m419.957031 82.414062c-3.699219 6.207032-10.476562 10.375-18.210937 10.375-11.683594 0-21.1875-9.503906-21.1875-21.183593 0-1 .078125-1.980469.210937-2.945313-1.160156-.859375-2.320312-1.757812-3.488281-2.714844-40.910156-33.574218-77.984375-12.257812-84.1875-8.253906v59.066406l34.1875-34.1875c6.558594-6.554687 17.183594-6.554687 23.738281 0l43.417969 43.417969c2.589844 2.589844 6.792969 2.589844 9.386719 0l10.539062-10.539062c5.933594-5.933594 15.550781-5.933594 21.484375 0l30.664063 30.664062v-86.796875c-3.445313 3.855469-21.304688 22.378906-46.554688 23.097656zm0 0" fill="#fecd0a"/><path d="m336.890625 72.371094c-7.210937-9.441406-3.539063-17.03125-.273437-21.054688.816406-1 1.222656-2.210937 1.234374-3.425781-23.167968-2.992187-40.667968 7.164063-44.757812 9.800781v59.066406l34.1875-34.1875c2.902344-2.898437 6.601562-4.511718 10.394531-4.84375.695313-1.761718.40625-3.796874-.785156-5.355468zm0 0" fill="#fca60d"/><path d="m423.835938 71.605469c0 12.199219-9.890626 22.089843-22.089844 22.089843-12.199219 0-22.089844-9.890624-22.089844-22.089843s9.890625-22.089844 22.089844-22.089844c12.199218 0 22.089844 9.890625 22.089844 22.089844zm0 0" fill="#fca60d"/><path d="m399.28125 49.65625c-11.039062 1.222656-19.625 10.582031-19.625 21.949219 0 21.101562 27.078125 30.246093 39.804688 13.199219-19.464844 2.160156-31.527344-19.941407-20.179688-35.148438zm0 0" fill="#f98a10"/><path d="m435.847656 113.449219c-5.933594-5.933594-15.550781-5.933594-21.484375 0l-10.539062 10.539062c-2.589844 2.59375-6.792969 2.59375-9.386719 0l-43.417969-43.417969c-6.554687-6.554687-17.179687-6.554687-23.734375 0l-34.1875 34.191407v42.960937c6.199219-4.003906 43.273438-25.320312 84.183594 8.25 46.355469 38.042969 84.039062-.820312 89.234375-6.625v-15.230468zm0 0" fill="#fca60d"/><path d="m345.480469 107.058594c-15.570313-12.707032-11.757813-23.304688-8.335938-28.300782.628907-.921874.917969-1.988281.902344-3.046874-3.917969.253906-7.769531 1.863281-10.765625 4.859374l-34.1875 34.191407v42.960937c3.8125-2.464844 19.304688-11.46875 40.183594-10.234375 1.117187-1.183593 1.945312-1.855469 1.945312-1.855469s32.007813-20.824218 10.257813-38.574218zm0 0" fill="#f98a10"/><path d="m377.28125 163.972656c-40.910156-33.570312-77.984375-12.257812-84.1875-8.25v44.582032h173.421875v-42.957032c-5.199219 5.804688-42.878906 44.667969-89.234375 6.625zm0 0" fill="#8181fc"/><path d="m338.730469 175.808594c-23.25-14.25-3.503907-30.175782-3.503907-30.175782-21.859374-1.941406-38.199218 7.550782-42.128906 10.089844v44.578125h45.753906c7.394532-6.613281 13.367188-16.226562-.121093-24.492187zm0 0" fill="#615df9"/></svg>